<svg xmlns="http://www.w3.org/2000/svg" width="760" height="160" viewBox="0 0 760 160" fill="none">
  <rect width="760" height="160" fill="#0B1021" rx="12"/>
  <text x="20" y="36" fill="#9CE1FF" font-family="Segoe UI, sans-serif" font-size="18" font-weight="600">Array as labeled boxes</text>
  <g transform="translate(20,60)">
    <rect x="0" y="0" width="700" height="70" fill="#141B32" stroke="#3EC4FF" stroke-width="2" rx="8"/>
    <g transform="translate(10,10)">
      <rect x="0" y="0" width="100" height="50" fill="#1D2542" stroke="#5FE0A8" stroke-width="2" rx="6"/>
      <text x="12" y="22" fill="#C6F9E8" font-family="Segoe UI, sans-serif" font-size="14">index 0</text>
      <text x="12" y="40" fill="#FFFFFF" font-family="Segoe UI, sans-serif" font-size="16">72</text>
    </g>
    <g transform="translate(120,10)">
      <rect x="0" y="0" width="100" height="50" fill="#1D2542" stroke="#5FE0A8" stroke-width="2" rx="6"/>
      <text x="12" y="22" fill="#C6F9E8" font-family="Segoe UI, sans-serif" font-size="14">index 1</text>
      <text x="12" y="40" fill="#FFFFFF" font-family="Segoe UI, sans-serif" font-size="16">18</text>
    </g>
    <g transform="translate(240,10)">
      <rect x="0" y="0" width="100" height="50" fill="#1D2542" stroke="#5FE0A8" stroke-width="2" rx="6"/>
      <text x="12" y="22" fill="#C6F9E8" font-family="Segoe UI, sans-serif" font-size="14">index 2</text>
      <text x="12" y="40" fill="#FFFFFF" font-family="Segoe UI, sans-serif" font-size="16">-4</text>
    </g>
    <g transform="translate(360,10)">
      <rect x="0" y="0" width="100" height="50" fill="#1D2542" stroke="#5FE0A8" stroke-width="2" rx="6"/>
      <text x="12" y="22" fill="#C6F9E8" font-family="Segoe UI, sans-serif" font-size="14">index 3</text>
      <text x="12" y="40" fill="#FFFFFF" font-family="Segoe UI, sans-serif" font-size="16">93</text>
    </g>
    <g transform="translate(480,10)">
      <rect x="0" y="0" width="100" height="50" fill="#1D2542" stroke="#5FE0A8" stroke-width="2" rx="6"/>
      <text x="12" y="22" fill="#C6F9E8" font-family="Segoe UI, sans-serif" font-size="14">index 4</text>
      <text x="12" y="40" fill="#FFFFFF" font-family="Segoe UI, sans-serif" font-size="16">11</text>
    </g>
    <g transform="translate(600,10)">
      <rect x="0" y="0" width="100" height="50" fill="#1D2542" stroke="#5FE0A8" stroke-width="2" rx="6"/>
      <text x="12" y="22" fill="#C6F9E8" font-family="Segoe UI, sans-serif" font-size="14">index 5</text>
      <text x="12" y="40" fill="#FFFFFF" font-family="Segoe UI, sans-serif" font-size="16">64</text>
    </g>
  </g>
  <text x="20" y="148" fill="#A1A9C3" font-family="Segoe UI, sans-serif" font-size="13">Fixed-size row of slots; each slot knows its index and holds one value.</text>
</svg>
